<svg width="135" height="38" viewBox="0 0 135 38" fill="none" xmlns="http://www.w3.org/2000/svg">
<path fill-rule="evenodd" clip-rule="evenodd" d="M17.4706 36.4166C27.1193 36.4166 34.9412 28.6189 34.9412 19C34.9412 9.38103 27.1193 1.58331 17.4706 1.58331C7.82183 1.58331 0 9.38103 0 19C0 28.6189 7.82183 36.4166 17.4706 36.4166ZM22.9208 9.69673C23.1861 8.75729 22.2716 8.20176 21.4364 8.79495L9.77751 17.0751C8.87175 17.7184 9.01422 19 9.99153 19H13.0616V18.9763H19.0451L14.1697 20.6912L12.0204 28.3033C11.7551 29.2427 12.6695 29.7982 13.5048 29.205L25.1637 20.9249C26.0694 20.2817 25.9269 19 24.9497 19H20.2939L22.9208 9.69673Z" fill="#BCBFC2"/>
<path d="M43.9785 26.8448V24.0898H46.1703V12.9748H43.9785V10.2198H52.555C53.5715 10.2198 54.4529 10.3939 55.1994 10.7423C55.9618 11.0748 56.5494 11.5577 56.9623 12.191C57.3912 12.8085 57.6056 13.5527 57.6056 14.4235V14.661C57.6056 15.421 57.4626 16.0464 57.1768 16.5373C56.8909 17.0123 56.5494 17.3844 56.1523 17.6535C55.7712 17.9069 55.4059 18.0889 55.0565 18.1998V18.6273C55.4059 18.7223 55.787 18.9044 56.2 19.1735C56.6129 19.4269 56.9623 19.7989 57.2482 20.2898C57.55 20.7806 57.7009 21.4219 57.7009 22.2135V22.451C57.7009 23.3694 57.4865 24.161 57.0576 24.826C56.6288 25.4752 56.0332 25.9739 55.2709 26.3223C54.5244 26.6706 53.6509 26.8448 52.6503 26.8448H43.9785ZM49.315 23.9948H52.2691C52.952 23.9948 53.5 23.8285 53.9129 23.496C54.3418 23.1635 54.5562 22.6885 54.5562 22.071V21.8335C54.5562 21.216 54.3497 20.741 53.9368 20.4085C53.5238 20.076 52.9679 19.9098 52.2691 19.9098H49.315V23.9948ZM49.315 17.0598H52.2215C52.8726 17.0598 53.4047 16.8935 53.8176 16.561C54.2465 16.2285 54.4609 15.7694 54.4609 15.1835V14.946C54.4609 14.3444 54.2544 13.8852 53.8415 13.5685C53.4285 13.236 52.8885 13.0698 52.2215 13.0698H49.315V17.0598Z" fill="#BCBFC2"/>
<path d="M64.8018 27.1773C63.6265 27.1773 62.5703 26.9398 61.6332 26.4648C60.6962 25.9898 59.9577 25.301 59.4177 24.3985C58.8777 23.496 58.6077 22.4114 58.6077 21.1448V20.7648C58.6077 19.4981 58.8777 18.4135 59.4177 17.511C59.9577 16.6085 60.6962 15.9198 61.6332 15.4448C62.5703 14.9698 63.6265 14.7323 64.8018 14.7323C65.9771 14.7323 67.0332 14.9698 67.9703 15.4448C68.9074 15.9198 69.6459 16.6085 70.1859 17.511C70.7259 18.4135 70.9959 19.4981 70.9959 20.7648V21.1448C70.9959 22.4114 70.7259 23.496 70.1859 24.3985C69.6459 25.301 68.9074 25.9898 67.9703 26.4648C67.0332 26.9398 65.9771 27.1773 64.8018 27.1773ZM64.8018 24.5173C65.7229 24.5173 66.4853 24.2244 67.0888 23.6385C67.6924 23.0369 67.9941 22.1819 67.9941 21.0735V20.836C67.9941 19.7277 67.6924 18.8806 67.0888 18.2948C66.5012 17.6931 65.7388 17.3923 64.8018 17.3923C63.8806 17.3923 63.1182 17.6931 62.5147 18.2948C61.9112 18.8806 61.6094 19.7277 61.6094 20.836V21.0735C61.6094 22.1819 61.9112 23.0369 62.5147 23.6385C63.1182 24.2244 63.8806 24.5173 64.8018 24.5173Z" fill="#BCBFC2"/>
<path d="M72.5755 26.8448V10.2198H75.5773V26.8448H72.5755Z" fill="#BCBFC2"/>
<path d="M82.2389 26.8448C81.4607 26.8448 80.8254 26.6073 80.333 26.1323C79.8566 25.6414 79.6183 24.9923 79.6183 24.1848V17.5348H76.6642V15.0648H79.6183V11.4073H82.6201V15.0648H85.8601V17.5348H82.6201V23.6623C82.6201 24.1373 82.8424 24.3748 83.2872 24.3748H85.5742V26.8448H82.2389Z" fill="#BCBFC2"/>
<path d="M92.2937 27.1773C90.7532 27.1773 89.4905 26.8448 88.5058 26.1798C87.5211 25.5148 86.9255 24.5648 86.719 23.3298L89.4826 22.6173C89.5938 23.1714 89.7764 23.6069 90.0305 23.9235C90.3005 24.2402 90.6261 24.4698 91.0073 24.6123C91.4043 24.7389 91.8332 24.8023 92.2937 24.8023C92.9926 24.8023 93.5088 24.6835 93.8423 24.446C94.1758 24.1927 94.3426 23.8839 94.3426 23.5198C94.3426 23.1556 94.1838 22.8785 93.8661 22.6885C93.5485 22.4827 93.0402 22.3164 92.3414 22.1898L91.6743 22.071C90.8485 21.9127 90.094 21.6989 89.4111 21.4298C88.7282 21.1448 88.1802 20.7569 87.7673 20.266C87.3543 19.7752 87.1479 19.1419 87.1479 18.366C87.1479 17.1944 87.5767 16.2998 88.4343 15.6823C89.292 15.0489 90.4196 14.7323 91.8173 14.7323C93.1355 14.7323 94.2314 15.0252 95.1049 15.611C95.9785 16.1969 96.5502 16.9648 96.8202 17.9148L94.0329 18.7698C93.9058 18.1681 93.6437 17.7406 93.2467 17.4873C92.8655 17.2339 92.389 17.1073 91.8173 17.1073C91.2455 17.1073 90.8087 17.2102 90.507 17.416C90.2052 17.606 90.0543 17.8752 90.0543 18.2235C90.0543 18.6035 90.2132 18.8885 90.5308 19.0785C90.8485 19.2527 91.2773 19.3873 91.8173 19.4823L92.4843 19.601C93.3737 19.7594 94.1758 19.9731 94.8905 20.2423C95.6211 20.4956 96.1929 20.8677 96.6058 21.3585C97.0346 21.8335 97.2491 22.4827 97.2491 23.306C97.2491 24.541 96.7964 25.4989 95.8911 26.1798C95.0017 26.8448 93.8026 27.1773 92.2937 27.1773Z" fill="#BCBFC2"/>
<path d="M98.6883 26.8448V10.2198H101.69V16.5135H102.119C102.246 16.2602 102.444 16.0069 102.714 15.7535C102.984 15.5002 103.342 15.2944 103.787 15.136C104.247 14.9619 104.827 14.8748 105.526 14.8748C106.447 14.8748 107.249 15.0885 107.932 15.516C108.631 15.9277 109.171 16.5056 109.552 17.2498C109.933 17.9781 110.124 18.8331 110.124 19.8148V26.8448H107.122V20.0523C107.122 19.1656 106.899 18.5006 106.455 18.0573C106.026 17.6139 105.407 17.3923 104.597 17.3923C103.675 17.3923 102.961 17.701 102.452 18.3185C101.944 18.9202 101.69 19.7673 101.69 20.8598V26.8448H98.6883Z" fill="#BCBFC2"/>
<path d="M112.177 26.8448V15.0648H115.179V26.8448H112.177ZM113.678 13.6873C113.138 13.6873 112.678 13.5131 112.297 13.1648C111.931 12.8164 111.749 12.3573 111.749 11.7873C111.749 11.2173 111.931 10.7581 112.297 10.4098C112.678 10.0614 113.138 9.88727 113.678 9.88727C114.234 9.88727 114.695 10.0614 115.06 10.4098C115.425 10.7581 115.608 11.2173 115.608 11.7873C115.608 12.3573 115.425 12.8164 115.06 13.1648C114.695 13.5131 114.234 13.6873 113.678 13.6873Z" fill="#BCBFC2"/>
<path d="M119.268 26.8448V17.5348H116.266V15.0648H119.268V12.8798C119.268 12.0723 119.506 11.431 119.983 10.956C120.475 10.4652 121.11 10.2198 121.889 10.2198H124.986V12.6898H122.937C122.492 12.6898 122.27 12.9273 122.27 13.4023V15.0648H125.367V17.5348H122.27V26.8448H119.268Z" fill="#BCBFC2"/>
<path d="M130.793 26.8448C130.015 26.8448 129.38 26.6073 128.887 26.1323C128.411 25.6414 128.173 24.9923 128.173 24.1848V17.5348H125.219V15.0648H128.173V11.4073H131.174V15.0648H134.414V17.5348H131.174V23.6623C131.174 24.1373 131.397 24.3748 131.842 24.3748H134.129V26.8448H130.793Z" fill="#BCBFC2"/>
</svg>
