
<svg width="158" height="38" viewBox="0 0 158 38" fill="none" xmlns="http://www.w3.org/2000/svg">
<path opacity="0.8" d="M28.9713 8.83749C28.6264 8.49531 28.2815 8.15314 27.9366 7.81097C26.9019 6.71601 25.7982 5.62105 24.4186 4.9367C22.8321 4.11549 21.1076 4.32078 19.383 4.32078C16.7618 4.32078 10.2086 4.32078 6.3457 4.32078L8.96697 7.81097C13.7266 7.81097 21.1765 7.81097 24.6256 7.81097C26.0741 7.81097 27.3158 8.0847 28.4885 8.83749C28.6954 8.90592 28.9024 8.90592 28.9713 8.83749Z" fill="#BCBFC2"/>
<path opacity="0.9" d="M31.8694 14.4492C31.5245 14.107 31.1796 13.7648 30.8347 13.4227C29.8 12.3277 28.6963 11.2327 27.3167 10.5484C25.7302 9.72717 24.0056 9.93248 22.2811 9.93248C20.0048 9.93248 14.5553 9.93248 10.6924 9.93248L13.3136 13.4227C18.0043 13.4227 24.4195 13.4227 27.5926 13.4227C29.0412 13.4227 30.2829 13.6964 31.4555 14.4492C31.5935 14.5176 31.7315 14.5176 31.8694 14.4492Z" fill="#BCBFC2"/>
<path d="M35.1107 19.9238C34.7658 19.5816 34.4209 19.2394 34.076 18.8973C33.0413 17.8023 31.9376 16.7073 30.558 16.023C28.9715 15.2018 27.2469 15.4071 25.5224 15.4071C23.384 15.4071 18.6933 15.4071 14.8994 15.4071L17.5207 18.8973C22.0734 18.8973 27.8678 18.8973 30.7649 18.8973C32.2135 18.8973 33.4552 19.171 34.6279 19.9238C34.8348 19.9922 34.9728 20.0607 35.1107 19.9238Z" fill="#BCBFC2"/>
<path opacity="0.8" d="M6.07031 29.1625C6.41522 29.5046 6.76012 29.8468 7.10502 30.189C8.13973 31.284 9.24341 32.3789 10.623 33.0632C12.2096 33.8845 13.9341 33.6792 15.6586 33.6792H28.6959L26.0747 30.189C21.315 30.189 13.8651 30.189 10.4161 30.189C8.9675 30.189 7.72584 29.9153 6.55317 29.1625C6.34623 29.094 6.20827 29.094 6.07031 29.1625Z" fill="#BCBFC2"/>
<path opacity="0.9" d="M3.17285 23.551C3.51775 23.8932 3.86266 24.2354 4.20756 24.5775C5.24227 25.6725 6.34595 26.7675 7.72556 27.4518C9.31212 28.273 11.0366 28.0677 12.7611 28.0677H24.3499L21.7286 24.5775C17.0379 24.5775 10.6228 24.5775 7.44965 24.5775C6.00105 24.5775 4.7594 24.3038 3.58673 23.551C3.44877 23.4826 3.31081 23.4826 3.17285 23.551Z" fill="#BCBFC2"/>
<path d="M0 18.0076C0.344903 18.3498 0.689806 18.692 1.03471 19.0341C2.06942 20.1291 3.17311 21.2241 4.55272 21.9084C6.13928 22.7296 7.86378 22.5243 9.5883 22.5243H20.2113L17.59 19.0341C13.0373 19.0341 7.24296 19.0341 4.34578 19.0341C2.89719 19.0341 1.65553 18.7604 0.482862 18.0076C0.27592 17.9392 0.137961 17.9392 0 18.0076Z" fill="#BCBFC2"/>
<path d="M43.0361 11.0897V26.9167H46.5441V20.3775H53.2247V17.6732H46.5441V14.0157H54.2525V11.0897H43.0361Z" fill="#BCBFC2"/>
<path d="M63.0508 19.9563H57.8895C57.9044 19.7347 57.949 19.4834 58.0235 19.2027C58.1129 18.9219 58.2544 18.6559 58.448 18.4047C58.6566 18.1534 58.9247 17.9465 59.2524 17.784C59.595 17.6067 60.0195 17.518 60.526 17.518C61.3006 17.518 61.874 17.7249 62.2464 18.1387C62.6337 18.5524 62.9018 19.1583 63.0508 19.9563ZM57.8895 21.9513H66.2236C66.2831 21.0647 66.2087 20.2149 66.0001 19.4022C65.7916 18.5894 65.449 17.8653 64.9723 17.2298C64.5106 16.5944 63.9147 16.0919 63.1848 15.7225C62.455 15.3383 61.5985 15.1462 60.6154 15.1462C59.7365 15.1462 58.9321 15.3013 58.2023 15.6117C57.4873 15.922 56.8691 16.3506 56.3478 16.8973C55.8264 17.4293 55.4242 18.0648 55.1412 18.8037C54.8582 19.5426 54.7167 20.3405 54.7167 21.1977C54.7167 22.0843 54.8507 22.8971 55.1189 23.636C55.4019 24.3749 55.7966 25.0103 56.3031 25.5423C56.8095 26.0743 57.4277 26.4881 58.1576 26.7837C58.8875 27.0644 59.7067 27.2048 60.6154 27.2048C61.9262 27.2048 63.0433 26.9093 63.9669 26.3182C64.8904 25.727 65.5756 24.7443 66.0225 23.37H63.2295C63.1253 23.7247 62.8423 24.0646 62.3805 24.3897C61.9187 24.7 61.3676 24.8552 60.7271 24.8552C59.8333 24.8552 59.1481 24.6261 58.6715 24.168C58.1948 23.7099 57.9341 22.971 57.8895 21.9513Z" fill="#BCBFC2"/>
<path d="M67.3009 18.981C67.3456 18.2421 67.5318 17.6288 67.8595 17.1412C68.1872 16.6535 68.6043 16.2619 69.1107 15.9663C69.6172 15.6708 70.1832 15.4639 70.8088 15.3457C71.4494 15.2127 72.0899 15.1462 72.7304 15.1462C73.3113 15.1462 73.8997 15.1905 74.4955 15.2792C75.0913 15.353 75.635 15.5082 76.1266 15.7447C76.6181 15.9811 77.0203 16.3136 77.3331 16.7422C77.6459 17.1559 77.8023 17.7101 77.8023 18.4047V24.3675C77.8023 24.8847 77.8321 25.3798 77.8917 25.8527C77.9513 26.3256 78.0556 26.6802 78.2045 26.9167H74.9871C74.9275 26.7393 74.8754 26.562 74.8307 26.3847C74.8009 26.1925 74.7785 26.0004 74.7636 25.8083C74.2572 26.3256 73.6614 26.6876 72.9762 26.8945C72.291 27.1014 71.5909 27.2048 70.8759 27.2048C70.3247 27.2048 69.8108 27.1383 69.3342 27.0053C68.8575 26.8723 68.4404 26.6654 68.083 26.3847C67.7255 26.1039 67.4424 25.7492 67.2339 25.3207C67.0403 24.8921 66.9434 24.3823 66.9434 23.7912C66.9434 23.1409 67.0552 22.6089 67.2786 22.1952C67.5169 21.7666 67.8148 21.4267 68.1723 21.1755C68.5447 20.9243 68.9618 20.7396 69.4236 20.6213C69.9002 20.4883 70.3769 20.3849 70.8535 20.311C71.3302 20.2371 71.7994 20.178 72.2612 20.1337C72.7229 20.0893 73.1326 20.0228 73.4901 19.9342C73.8476 19.8455 74.1306 19.7199 74.3391 19.5573C74.5477 19.38 74.6445 19.1288 74.6296 18.8037C74.6296 18.4638 74.57 18.1978 74.4508 18.0057C74.3466 17.7988 74.1976 17.6436 74.004 17.5402C73.8252 17.4219 73.6092 17.3481 73.356 17.3185C73.1177 17.2742 72.857 17.252 72.574 17.252C71.9484 17.252 71.4568 17.385 71.0993 17.651C70.7418 17.917 70.5333 18.3603 70.4737 18.981H67.3009ZM74.6296 21.3085C74.4955 21.4267 74.3242 21.5228 74.1157 21.5967C73.922 21.6558 73.706 21.7075 73.4677 21.7518C73.2443 21.7962 73.006 21.8331 72.7527 21.8627C72.4995 21.8922 72.2463 21.9292 71.993 21.9735C71.7547 22.0178 71.5164 22.0769 71.2781 22.1508C71.0546 22.2247 70.8535 22.3282 70.6748 22.4612C70.5109 22.5794 70.3769 22.7345 70.2726 22.9267C70.1683 23.1188 70.1162 23.3626 70.1162 23.6582C70.1162 23.9389 70.1683 24.1754 70.2726 24.3675C70.3769 24.5596 70.5184 24.7148 70.6971 24.833C70.8759 24.9364 71.0844 25.0103 71.3227 25.0547C71.5611 25.099 71.8069 25.1212 72.0601 25.1212C72.6857 25.1212 73.1698 25.0177 73.5124 24.8108C73.855 24.6039 74.1082 24.3601 74.2721 24.0793C74.4359 23.7838 74.5328 23.4882 74.5625 23.1927C74.6072 22.8971 74.6296 22.6607 74.6296 22.4833V21.3085Z" fill="#BCBFC2"/>
<path d="M83.6165 15.4565V12.0207H80.4438V15.4565H78.5222V17.5623H80.4438V24.3232C80.4438 24.8995 80.5406 25.365 80.7342 25.7197C80.9279 26.0743 81.1885 26.3477 81.5162 26.5398C81.8588 26.7319 82.2461 26.8575 82.6781 26.9167C83.125 26.9905 83.5942 27.0275 84.0857 27.0275C84.3985 27.0275 84.7188 27.0201 85.0465 27.0053C85.3742 26.9905 85.6721 26.961 85.9402 26.9167V24.4783C85.7913 24.5079 85.6349 24.5301 85.471 24.5448C85.3072 24.5596 85.1359 24.567 84.9571 24.567C84.4209 24.567 84.0634 24.4783 83.8846 24.301C83.7059 24.1237 83.6165 23.769 83.6165 23.237V17.5623H85.9402V15.4565H83.6165Z" fill="#BCBFC2"/>
<path d="M86.7795 11.0897V26.9167H89.9523V20.9095C89.9523 19.742 90.1459 18.9071 90.5332 18.4047C90.9205 17.8874 91.5461 17.6288 92.4101 17.6288C93.1697 17.6288 93.6985 17.8653 93.9964 18.3382C94.2944 18.7963 94.4433 19.4982 94.4433 20.444V26.9167H97.6161V19.8677C97.6161 19.1583 97.5491 18.5155 97.415 17.9392C97.2958 17.348 97.0798 16.853 96.767 16.454C96.4542 16.0402 96.0223 15.7225 95.4711 15.5008C94.9349 15.2644 94.2422 15.1462 93.3932 15.1462C92.7974 15.1462 92.1866 15.3013 91.561 15.6117C90.9354 15.9072 90.4215 16.3875 90.0193 17.0525H89.9523V11.0897H86.7795Z" fill="#BCBFC2"/>
<path d="M107.129 19.9563H101.968C101.983 19.7347 102.028 19.4834 102.102 19.2027C102.191 18.9219 102.333 18.6559 102.527 18.4047C102.735 18.1534 103.003 17.9465 103.331 17.784C103.674 17.6067 104.098 17.518 104.605 17.518C105.379 17.518 105.953 17.7249 106.325 18.1387C106.712 18.5524 106.98 19.1583 107.129 19.9563ZM101.968 21.9513H110.302C110.362 21.0647 110.287 20.2149 110.079 19.4022C109.87 18.5894 109.528 17.8653 109.051 17.2298C108.589 16.5944 107.993 16.0919 107.263 15.7225C106.534 15.3383 105.677 15.1462 104.694 15.1462C103.815 15.1462 103.011 15.3013 102.281 15.6117C101.566 15.922 100.948 16.3506 100.426 16.8973C99.905 17.4293 99.5028 18.0648 99.2198 18.8037C98.9367 19.5426 98.7952 20.3405 98.7952 21.1977C98.7952 22.0843 98.9293 22.8971 99.1974 23.636C99.4804 24.3749 99.8752 25.0103 100.382 25.5423C100.888 26.0743 101.506 26.4881 102.236 26.7837C102.966 27.0644 103.785 27.2048 104.694 27.2048C106.005 27.2048 107.122 26.9093 108.045 26.3182C108.969 25.727 109.654 24.7443 110.101 23.37H107.308C107.204 23.7247 106.921 24.0646 106.459 24.3897C105.997 24.7 105.446 24.8552 104.806 24.8552C103.912 24.8552 103.227 24.6261 102.75 24.168C102.273 23.7099 102.013 22.971 101.968 21.9513Z" fill="#BCBFC2"/>
<path d="M111.514 15.4565V26.9167H114.686V21.7518C114.686 21.2346 114.738 20.7543 114.843 20.311C114.947 19.8677 115.118 19.4834 115.357 19.1583C115.61 18.8184 115.938 18.5524 116.34 18.3603C116.742 18.1682 117.233 18.0722 117.814 18.0722C118.008 18.0722 118.209 18.0869 118.418 18.1165C118.626 18.1313 118.805 18.1534 118.954 18.183V15.257C118.701 15.1831 118.47 15.1462 118.261 15.1462C117.859 15.1462 117.472 15.2053 117.099 15.3235C116.727 15.4417 116.377 15.6117 116.049 15.8333C115.722 16.0402 115.431 16.2988 115.178 16.6092C114.925 16.9047 114.724 17.2298 114.575 17.5845H114.53V15.4565H111.514Z" fill="#BCBFC2"/>
<path d="M123.371 23.9907V14.0157H125.873C126.737 14.0157 127.459 14.1413 128.04 14.3925C128.636 14.6289 129.113 14.9762 129.47 15.4343C129.828 15.8924 130.081 16.4466 130.23 17.0968C130.394 17.7323 130.476 18.449 130.476 19.247C130.476 20.1189 130.364 20.8578 130.141 21.4637C129.917 22.0695 129.619 22.5646 129.247 22.9488C128.874 23.3183 128.45 23.5843 127.973 23.7468C127.497 23.9094 127.005 23.9907 126.499 23.9907H123.371ZM119.863 11.0897V26.9167H126.744C127.966 26.9167 129.023 26.7172 129.917 26.3182C130.826 25.9044 131.578 25.3428 132.174 24.6335C132.785 23.9242 133.239 23.0818 133.537 22.1065C133.835 21.1312 133.984 20.0672 133.984 18.9145C133.984 17.5993 133.798 16.454 133.425 15.4787C133.068 14.5033 132.561 13.6906 131.906 13.0403C131.265 12.3901 130.498 11.9024 129.604 11.5773C128.726 11.2522 127.772 11.0897 126.744 11.0897H119.863Z" fill="#BCBFC2"/>
<path d="M143.194 19.9563H138.033C138.047 19.7347 138.092 19.4834 138.167 19.2027C138.256 18.9219 138.398 18.6559 138.591 18.4047C138.8 18.1534 139.068 17.9465 139.396 17.784C139.738 17.6067 140.163 17.518 140.669 17.518C141.444 17.518 142.017 17.7249 142.39 18.1387C142.777 18.5524 143.045 19.1583 143.194 19.9563ZM138.033 21.9513H146.367C146.426 21.0647 146.352 20.2149 146.143 19.4022C145.935 18.5894 145.592 17.8653 145.115 17.2298C144.654 16.5944 144.058 16.0919 143.328 15.7225C142.598 15.3383 141.742 15.1462 140.758 15.1462C139.88 15.1462 139.075 15.3013 138.345 15.6117C137.63 15.922 137.012 16.3506 136.491 16.8973C135.97 17.4293 135.567 18.0648 135.284 18.8037C135.001 19.5426 134.86 20.3405 134.86 21.1977C134.86 22.0843 134.994 22.8971 135.262 23.636C135.545 24.3749 135.94 25.0103 136.446 25.5423C136.953 26.0743 137.571 26.4881 138.301 26.7837C139.031 27.0644 139.85 27.2048 140.758 27.2048C142.069 27.2048 143.186 26.9093 144.11 26.3182C145.034 25.727 145.719 24.7443 146.166 23.37H143.373C143.268 23.7247 142.985 24.0646 142.524 24.3897C142.062 24.7 141.511 24.8552 140.87 24.8552C139.976 24.8552 139.291 24.6261 138.815 24.168C138.338 23.7099 138.077 22.971 138.033 21.9513Z" fill="#BCBFC2"/>
<path d="M153.968 26.9167L157.878 15.4565H154.728L152.293 23.2813H152.248L149.812 15.4565H146.483L150.438 26.9167H153.968Z" fill="#BCBFC2"/>
</svg>
