<svg width="156" height="38" viewBox="0 0 156 38" fill="none" xmlns="http://www.w3.org/2000/svg">
<path d="M24.096 1.58331H10.7467L0 12.3271V25.6729L10.7467 36.4166H24.096L34.8426 25.6729V12.3271L24.096 1.58331ZM12.5937 25.8407L5.70917 18.958L12.5937 12.0753C15.1964 9.47327 19.4783 9.47327 22.081 12.0753L28.9656 18.958L22.081 25.8407C19.4783 28.4427 15.2804 28.4427 12.5937 25.8407Z" fill="#BCBFC2"/>
<path d="M50.1575 27.1067C52.2956 27.1067 54.0536 26.0142 54.6 24.3754V26.9167H57.7596V20.5042C57.7596 19.0554 56.6193 17.8204 55.0751 17.8204H50.5614V20.5042H53.7685C54.1724 20.5042 54.4337 20.7654 54.4337 21.1692C54.4337 22.7129 52.3906 24.2092 50.3238 24.2092C47.5681 24.2092 45.3825 22.0479 45.3825 18.6042C45.3825 15.1604 47.5681 13.1654 50.3951 13.1654C52.5332 13.1654 54.0061 14.3292 54.2674 16.1104H57.8071C57.5933 12.5479 54.6 10.1017 50.4189 10.1017C46.0239 10.1017 41.9854 12.9279 41.9854 18.6042C41.9854 24.2804 45.9051 27.1067 50.1575 27.1067Z" fill="#BCBFC2"/>
<path d="M59.1159 26.9167H62.418V9.74542H59.1159V26.9167Z" fill="#BCBFC2"/>
<path d="M69.541 27.1067C73.2233 27.1067 75.8602 24.4942 75.8602 20.9317C75.8602 17.3692 73.2233 14.7567 69.541 14.7567C65.8588 14.7567 63.2219 17.3692 63.2219 20.9317C63.2219 24.4942 65.8588 27.1067 69.541 27.1067ZM69.541 24.2567C67.7593 24.2567 66.5477 22.9029 66.5477 20.9317C66.5477 18.9367 67.7593 17.5829 69.541 17.5829C71.3228 17.5829 72.5343 18.9367 72.5343 20.9317C72.5343 22.9029 71.3228 24.2567 69.541 24.2567Z" fill="#BCBFC2"/>
<path d="M83.2492 27.1067C86.7889 27.1067 88.9032 24.6604 88.9032 20.9317C88.9032 17.2029 86.7889 14.7567 83.2967 14.7567C81.8001 14.7567 80.636 15.3267 79.9708 16.2054V9.74542H76.6687V26.9167H79.9708V25.6104C80.636 26.5367 81.8713 27.1067 83.2492 27.1067ZM82.7266 24.2567C80.9448 24.2567 79.7808 22.9267 79.7808 20.9317C79.7808 18.9129 80.9448 17.5829 82.7266 17.5829C84.4608 17.5829 85.6486 18.9129 85.6486 20.9317C85.6486 22.9267 84.4608 24.2567 82.7266 24.2567Z" fill="#BCBFC2"/>
<path d="M94.4308 14.7567C91.1525 14.7567 89.2044 16.6804 89.0619 19.0792H92.0077C92.0552 18.0817 92.7916 17.1792 94.2408 17.1792C95.5949 17.1792 96.3788 17.8679 96.3788 18.8654C96.3788 19.3642 96.07 19.7442 95.4761 19.7442H93.4568C90.8436 19.7442 89.0856 21.1692 89.0856 23.5204C89.0856 25.5629 90.6773 27.1067 93.0054 27.1067C94.6446 27.1067 95.975 26.3704 96.3788 25.2542V26.9167H99.6572V19.2217C99.6572 16.5142 97.4479 14.7567 94.4308 14.7567ZM93.8369 24.7079C92.9104 24.7079 92.2452 24.1617 92.2452 23.3779C92.2452 22.4517 92.9579 21.8342 93.9557 21.8342H96.3788V22.0004C96.3788 23.5204 95.4524 24.7079 93.8369 24.7079Z" fill="#BCBFC2"/>
<path d="M100.926 26.9167H104.228V9.74542H100.926V26.9167Z" fill="#BCBFC2"/>
<path d="M105.982 26.9167H112.777C116.293 26.9167 118.716 25.1117 118.716 21.9529C118.716 19.7679 117.433 18.4379 115.912 17.8442C116.887 17.3217 117.861 16.1342 117.861 14.5667C117.861 11.7879 115.604 10.2917 112.587 10.2917H105.982V26.9167ZM109.498 16.6329V13.1179H112.254C113.846 13.1179 114.558 13.7592 114.558 14.8754C114.558 15.9917 113.846 16.6329 112.325 16.6329H109.498ZM109.498 23.8292V19.6492H112.468C114.44 19.6492 115.319 20.4092 115.319 21.7629C115.319 23.1167 114.44 23.8292 112.468 23.8292H109.498Z" fill="#BCBFC2"/>
<path d="M124.46 14.7567C121.182 14.7567 119.234 16.6804 119.091 19.0792H122.037C122.085 18.0817 122.821 17.1792 124.27 17.1792C125.624 17.1792 126.408 17.8679 126.408 18.8654C126.408 19.3642 126.1 19.7442 125.506 19.7442H123.486C120.873 19.7442 119.115 21.1692 119.115 23.5204C119.115 25.5629 120.707 27.1067 123.035 27.1067C124.674 27.1067 126.004 26.3704 126.408 25.2542V26.9167H129.687V19.2217C129.687 16.5142 127.477 14.7567 124.46 14.7567ZM123.866 24.7079C122.94 24.7079 122.275 24.1617 122.275 23.3779C122.275 22.4517 122.987 21.8342 123.985 21.8342H126.408V22.0004C126.408 23.5204 125.482 24.7079 123.866 24.7079Z" fill="#BCBFC2"/>
<path d="M130.766 26.9167H134.091V20.3617C134.091 18.8179 135.113 17.7017 136.562 17.7017C137.94 17.7017 138.867 18.7467 138.867 20.1954V26.9167H142.192V19.4592C142.192 16.7042 140.434 14.7567 137.726 14.7567C136.087 14.7567 134.757 15.4454 134.091 16.6092V14.9467H130.766V26.9167Z" fill="#BCBFC2"/>
<path d="M151.671 26.9167H155.662L150.507 19.6492L155.282 14.9467H151.101L146.944 19.0317V9.74542H143.618V26.9167H146.944V23.1642L148.274 21.8579L151.671 26.9167Z" fill="#BCBFC2"/>
</svg>
