<svg width="132" height="38" viewBox="0 0 132 38" fill="none" xmlns="http://www.w3.org/2000/svg">
<path fill-rule="evenodd" clip-rule="evenodd" d="M15.623 2.72958C15.2238 2.64735 14.8121 2.64735 14.4129 2.72958C13.9515 2.82464 13.539 3.05601 13.2111 3.23995L13.1218 3.28996L2.00887 9.47353C1.97815 9.49062 1.94649 9.50809 1.91405 9.52599C1.56695 9.71747 1.13053 9.95823 0.795374 10.3225C0.505611 10.6374 0.286326 11.0107 0.152184 11.4173C-0.00297186 11.8877 -0.00115658 12.3867 0.000287047 12.7836C0.000421996 12.8207 0.000553626 12.8569 0.000553626 12.8921V25.1011C0.000553626 25.1363 0.000421996 25.1725 0.000287047 25.2096C-0.00115658 25.6065 -0.00297186 26.1055 0.152184 26.5759C0.286327 26.9825 0.505613 27.3558 0.795375 27.6707C1.13053 28.035 1.56696 28.2757 1.91405 28.4672C1.94649 28.4851 1.97815 28.5026 2.00888 28.5197L13.1218 34.7032L13.2111 34.7533C13.539 34.9372 13.9515 35.1686 14.4129 35.2636C14.8121 35.3458 15.2238 35.3458 15.623 35.2636C16.0845 35.1686 16.4969 34.9372 16.8248 34.7533L16.9142 34.7032L28.0271 28.5197C28.0406 28.5121 28.0544 28.5045 28.0683 28.4968C28.0859 28.4871 28.1038 28.4772 28.1219 28.4672C28.469 28.2757 28.9054 28.035 29.2406 27.6707C29.5303 27.3558 29.7496 26.9825 29.8837 26.5759C30.0389 26.1055 30.0371 25.6065 30.0356 25.2096C30.0355 25.1725 30.0354 25.1363 30.0354 25.1011V12.8921C30.0354 12.8569 30.0355 12.8207 30.0356 12.7836C30.0371 12.3867 30.0389 11.8877 29.8837 11.4173C29.7496 11.0107 29.5303 10.6374 29.2406 10.3225C28.9054 9.95822 28.469 9.71746 28.1219 9.52598L28.1206 9.5253C28.0886 9.50764 28.0574 9.4904 28.0271 9.47353L16.9142 3.28996L16.8248 3.23995C16.4969 3.05601 16.0845 2.82463 15.623 2.72958ZM14.5804 5.91962C14.808 5.79299 14.9241 5.729 15.0108 5.68714L15.018 5.6837L15.0251 5.68714C15.1118 5.729 15.228 5.79299 15.4556 5.91962L25.4413 11.476L15.0179 17.2759L4.59459 11.476L14.5804 5.91962ZM3.00404 14.0323L13.5162 19.8816L13.5162 31.4814L3.4675 25.89C3.22729 25.7564 3.10465 25.6874 3.0186 25.6325L3.01134 25.6278L3.0108 25.6192C3.00466 25.5172 3.00404 25.3763 3.00404 25.1011V14.0323Z" fill="#BCBFC2"/>
<path d="M43.7031 24.0233H48.4835V26.8448H40.0537V11.8396H43.7031V24.0233Z" fill="#BCBFC2"/>
<path d="M51.8461 13.6778C51.2059 13.6778 50.6795 13.4926 50.2669 13.1221C49.8685 12.7373 49.6693 12.2671 49.6693 11.7113C49.6693 11.1413 49.8685 10.6711 50.2669 10.3006C50.6795 9.91582 51.2059 9.72345 51.8461 9.72345C52.4721 9.72345 52.9843 9.91582 53.3827 10.3006C53.7953 10.6711 54.0016 11.1413 54.0016 11.7113C54.0016 12.2671 53.7953 12.7373 53.3827 13.1221C52.9843 13.4926 52.4721 13.6778 51.8461 13.6778ZM53.6601 14.9176V26.8448H50.0108V14.9176H53.6601Z" fill="#BCBFC2"/>
<path d="M60.6157 14.7466C61.4552 14.7466 62.1879 14.9176 62.8139 15.2596C63.4541 15.6016 63.945 16.0505 64.2864 16.6062V14.9176H67.9358V26.8235C67.9358 27.9207 67.7153 28.9111 67.2742 29.7946C66.8474 30.6923 66.1858 31.4048 65.2895 31.9321C64.4074 32.4593 63.3047 32.7229 61.9816 32.7229C60.2174 32.7229 58.7875 32.3026 57.692 31.4618C56.5965 30.6353 55.9704 29.5096 55.8139 28.0846H59.4206C59.5344 28.5406 59.8048 28.8968 60.2316 29.1533C60.6584 29.4241 61.1848 29.5595 61.8109 29.5595C62.5649 29.5595 63.1625 29.3386 63.6035 28.8968C64.0588 28.4693 64.2864 27.7782 64.2864 26.8235V25.1348C63.9308 25.6906 63.4399 26.1466 62.8139 26.5028C62.1879 26.8448 61.4552 27.0158 60.6157 27.0158C59.634 27.0158 58.7448 26.7665 57.9481 26.2677C57.1513 25.7547 56.5182 25.0351 56.0487 24.1088C55.5934 23.1683 55.3658 22.0853 55.3658 20.8598C55.3658 19.6343 55.5934 18.5585 56.0487 17.6322C56.5182 16.706 57.1513 15.9935 57.9481 15.4947C58.7448 14.996 59.634 14.7466 60.6157 14.7466ZM64.2864 20.8812C64.2864 19.9692 64.0303 19.2496 63.5182 18.7223C63.0202 18.1951 62.4084 17.9315 61.6828 17.9315C60.9572 17.9315 60.3383 18.1951 59.8261 18.7223C59.3281 19.2353 59.0792 19.9478 59.0792 20.8598C59.0792 21.7718 59.3281 22.4986 59.8261 23.0401C60.3383 23.5673 60.9572 23.831 61.6828 23.831C62.4084 23.831 63.0202 23.5673 63.5182 23.0401C64.0303 22.5128 64.2864 21.7932 64.2864 20.8812Z" fill="#BCBFC2"/>
<path d="M77.6826 14.7893C79.0485 14.7893 80.144 15.2453 80.9692 16.1573C81.7944 17.0551 82.207 18.2948 82.207 19.8766V26.8448H78.579V20.3682C78.579 19.5702 78.3727 18.9503 77.9601 18.5086C77.5475 18.0668 76.9926 17.846 76.2954 17.846C75.5983 17.846 75.0434 18.0668 74.6308 18.5086C74.2182 18.9503 74.0119 19.5702 74.0119 20.3682V26.8448H70.3625V11.0273H74.0119V16.5207C74.3818 15.9935 74.8869 15.5731 75.5271 15.2596C76.1674 14.9461 76.8859 14.7893 77.6826 14.7893Z" fill="#BCBFC2"/>
<path d="M91.1667 23.7455V26.8448H89.31C87.9868 26.8448 86.9553 26.5242 86.2155 25.8829C85.4756 25.2275 85.1057 24.1658 85.1057 22.6981V17.9528H83.6545V14.9176H85.1057V12.0106H88.7551V14.9176H91.1453V17.9528H88.7551V22.7408C88.7551 23.0971 88.8405 23.3536 89.0112 23.5103C89.1819 23.6671 89.4665 23.7455 89.8648 23.7455H91.1667Z" fill="#BCBFC2"/>
<path d="M96.6354 16.6062C96.9768 16.0505 97.4677 15.6016 98.1079 15.2596C98.7482 14.9176 99.4809 14.7466 100.306 14.7466C101.288 14.7466 102.177 14.996 102.974 15.4947C103.77 15.9935 104.396 16.706 104.852 17.6322C105.321 18.5585 105.556 19.6343 105.556 20.8598C105.556 22.0853 105.321 23.1683 104.852 24.1088C104.396 25.0351 103.77 25.7547 102.974 26.2677C102.177 26.7665 101.288 27.0158 100.306 27.0158C99.4667 27.0158 98.7339 26.8519 98.1079 26.5242C97.4819 26.1822 96.9911 25.7333 96.6354 25.1776V26.8448H92.986V11.0273H96.6354V16.6062ZM101.843 20.8598C101.843 19.9478 101.587 19.2353 101.074 18.7223C100.576 18.1951 99.9575 17.9315 99.2177 17.9315C98.4921 17.9315 97.8732 18.1951 97.361 18.7223C96.863 19.2496 96.614 19.9692 96.614 20.8812C96.614 21.7932 96.863 22.5128 97.361 23.0401C97.8732 23.5673 98.4921 23.831 99.2177 23.831C99.9433 23.831 100.562 23.5673 101.074 23.0401C101.587 22.4986 101.843 21.7718 101.843 20.8598Z" fill="#BCBFC2"/>
<path d="M112.678 27.0158C111.511 27.0158 110.458 26.7665 109.519 26.2677C108.595 25.769 107.862 25.0564 107.321 24.1302C106.795 23.2039 106.532 22.121 106.532 20.8812C106.532 19.6557 106.802 18.5798 107.343 17.6536C107.883 16.7131 108.623 15.9935 109.562 15.4947C110.501 14.996 111.554 14.7466 112.721 14.7466C113.887 14.7466 114.94 14.996 115.879 15.4947C116.818 15.9935 117.558 16.7131 118.099 17.6536C118.639 18.5798 118.91 19.6557 118.91 20.8812C118.91 22.1067 118.632 23.1897 118.077 24.1302C117.537 25.0564 116.79 25.769 115.836 26.2677C114.897 26.7665 113.845 27.0158 112.678 27.0158ZM112.678 23.8523C113.375 23.8523 113.965 23.5958 114.449 23.0828C114.947 22.5698 115.196 21.836 115.196 20.8812C115.196 19.9265 114.954 19.1926 114.471 18.6796C114.001 18.1666 113.418 17.9101 112.721 17.9101C112.009 17.9101 111.419 18.1666 110.949 18.6796C110.48 19.1783 110.245 19.9122 110.245 20.8812C110.245 21.836 110.473 22.5698 110.928 23.0828C111.397 23.5958 111.981 23.8523 112.678 23.8523Z" fill="#BCBFC2"/>
<path d="M127.675 26.8448L125.391 23.5317L123.471 26.8448H119.522L123.449 20.753L119.416 14.9176H123.513L125.797 18.2093L127.718 14.9176H131.666L127.675 20.924L131.772 26.8448H127.675Z" fill="#BCBFC2"/>
</svg>
