<svg width="29" height="24" viewBox="0 0 29 24" fill="none" xmlns="http://www.w3.org/2000/svg">
<path d="M26.6009 7.71896e-05H11.1539C10.7296 7.71896e-05 10.3228 0.168617 10.0228 0.468619C9.72275 0.768621 9.55421 1.17551 9.55421 1.59978V7.60887H1.5997C1.17569 7.6097 0.769282 7.77851 0.469459 8.07833C0.169637 8.37815 0.000830584 8.78456 0 9.20857V19.3568C0.000830584 19.7808 0.169637 20.1872 0.469459 20.487C0.769282 20.7868 1.17569 20.9557 1.5997 20.9565H4.65139L4.57596 23.4519C4.57283 23.5488 4.59565 23.6447 4.64207 23.7298C4.68849 23.8149 4.75681 23.8861 4.83996 23.9359C4.92605 23.9781 5.02066 24 5.11653 24C5.2124 24 5.30701 23.9781 5.3931 23.9359L10.7799 20.9439H17.1724C17.3825 20.9439 17.5905 20.9025 17.7846 20.8221C17.9787 20.7417 18.155 20.6239 18.3036 20.4754C18.4521 20.3268 18.57 20.1505 18.6504 19.9564C18.7308 19.7623 18.7721 19.5543 18.7721 19.3442V14.5702H19.6961L23.9578 17.5748C24.0429 17.6255 24.1389 17.6553 24.2377 17.6619C24.3366 17.6684 24.4356 17.6515 24.5267 17.6125C24.6199 17.5695 24.699 17.5009 24.7546 17.4146C24.8103 17.3284 24.8402 17.228 24.8409 17.1254V14.5702H26.6166C27.0409 14.5702 27.4478 14.4017 27.7478 14.1017C28.0478 13.8017 28.2163 13.3948 28.2163 12.9705V1.59978C28.2164 1.38837 28.1745 1.17906 28.0931 0.983948C28.0117 0.788832 27.8925 0.61178 27.7423 0.463027C27.592 0.314273 27.4138 0.19677 27.2179 0.117307C27.022 0.037845 26.8123 -0.00199948 26.6009 7.71896e-05ZM17.6721 19.3568C17.6721 19.4893 17.6195 19.6164 17.5258 19.7101C17.4321 19.8038 17.305 19.8565 17.1724 19.8565H10.6228C10.5294 19.857 10.4376 19.8808 10.3556 19.9256L5.69481 22.5153L5.75767 20.4222C5.75928 20.348 5.7456 20.2743 5.71749 20.2056C5.68937 20.137 5.64742 20.0748 5.59424 20.0231C5.54279 19.9701 5.48121 19.9281 5.41318 19.8995C5.34515 19.8709 5.27205 19.8563 5.19824 19.8565H1.5997C1.46717 19.8565 1.34007 19.8038 1.24635 19.7101C1.15264 19.6164 1.09999 19.4893 1.09999 19.3568V9.20857C1.10082 9.0763 1.15373 8.94967 1.24726 8.85614C1.3408 8.7626 1.46742 8.70969 1.5997 8.70886H9.55421V12.9705C9.55421 13.3948 9.72275 13.8017 10.0228 14.1017C10.3228 14.4017 10.7296 14.5702 11.1539 14.5702H17.6721V19.3568ZM27.1006 12.9705C27.1006 13.1031 27.048 13.2302 26.9543 13.3239C26.8606 13.4176 26.7335 13.4703 26.6009 13.4703H24.2752C24.1294 13.4703 23.9895 13.5282 23.8863 13.6313C23.7832 13.7345 23.7252 13.8744 23.7252 14.0203V16.0631L20.1896 13.5708C20.0976 13.5059 19.9879 13.4708 19.8753 13.4703H11.1539C11.0214 13.4703 10.8943 13.4176 10.8006 13.3239C10.7068 13.2302 10.6542 13.1031 10.6542 12.9705V1.59978C10.6525 1.53311 10.6642 1.46677 10.6886 1.40468C10.7129 1.3426 10.7495 1.28602 10.796 1.23828C10.8426 1.19053 10.8983 1.1526 10.9597 1.1267C11.0212 1.10081 11.0872 1.08748 11.1539 1.0875H26.6009C26.7335 1.0875 26.8606 1.14014 26.9543 1.23386C27.048 1.32757 27.1006 1.45468 27.1006 1.58721V12.9705Z" fill="#1E2837"/>
<path d="M14.6362 6.23231C14.4105 6.23231 14.19 6.29922 14.0023 6.42458C13.8147 6.54994 13.6685 6.72811 13.5822 6.93658C13.4958 7.14504 13.4732 7.37442 13.5172 7.59573C13.5613 7.81703 13.6699 8.02031 13.8295 8.17986C13.989 8.33941 14.1923 8.44807 14.4136 8.49209C14.6349 8.53611 14.8643 8.51351 15.0727 8.42717C15.2812 8.34082 15.4594 8.19459 15.5847 8.00698C15.7101 7.81937 15.777 7.5988 15.777 7.37316C15.777 7.07059 15.6568 6.78041 15.4429 6.56646C15.2289 6.35251 14.9387 6.23231 14.6362 6.23231ZM19.1901 6.23231C18.9644 6.23169 18.7435 6.29807 18.5555 6.42305C18.3674 6.54803 18.2207 6.72599 18.1339 6.93439C18.0471 7.1428 18.024 7.37229 18.0677 7.5938C18.1113 7.8153 18.2197 8.01888 18.3792 8.17874C18.5386 8.33861 18.7419 8.44758 18.9633 8.49185C19.1846 8.53613 19.4142 8.51372 19.6228 8.42746C19.8315 8.34121 20.0098 8.19498 20.1353 8.00731C20.2608 7.81963 20.3278 7.59893 20.3278 7.37316C20.3282 7.22349 20.2991 7.07521 20.2421 6.93681C20.1851 6.79842 20.1014 6.67263 19.9957 6.56665C19.89 6.46067 19.7645 6.37659 19.6262 6.31921C19.488 6.26184 19.3398 6.23231 19.1901 6.23231ZM23.7441 6.23231C23.5183 6.23169 23.2974 6.29807 23.1094 6.42305C22.9214 6.54803 22.7747 6.72599 22.6878 6.93439C22.601 7.1428 22.578 7.37229 22.6216 7.5938C22.6653 7.8153 22.7737 8.01888 22.9331 8.17874C23.0926 8.33861 23.2958 8.44758 23.5172 8.49185C23.7386 8.53613 23.9682 8.51372 24.1768 8.42746C24.3854 8.34121 24.5638 8.19498 24.6893 8.00731C24.8148 7.81963 24.8818 7.59893 24.8818 7.37316C24.8822 7.22349 24.8531 7.07521 24.7961 6.93681C24.7391 6.79842 24.6554 6.67263 24.5497 6.56665C24.444 6.46067 24.3184 6.37659 24.1802 6.31921C24.042 6.26184 23.8938 6.23231 23.7441 6.23231Z" fill="#1E2837"/>
</svg>
