<svg width="47" height="47" viewBox="0 0 47 47" fill="none" xmlns="http://www.w3.org/2000/svg">
<circle cx="23.5" cy="23.5" r="23.5" fill="#2329DB" fill-opacity="0.1"/>
<path d="M23.0293 19.8208C20.1567 19.8208 17.4492 19.4019 15.4053 18.6416C13.2095 17.8242 12 16.6768 12 15.4106C12 14.1445 13.2095 12.9966 15.4053 12.1792C17.4492 11.4189 20.1567 11 23.0293 11C25.9019 11 28.6089 11.4189 30.6523 12.1792C32.8496 12.9966 34.0576 14.144 34.0576 15.4106C34.0576 16.6772 32.8496 17.8242 30.6523 18.6416C28.6089 19.4019 25.9014 19.8208 23.0293 19.8208ZM23.0293 11.9766C17.105 11.9766 12.9766 13.7861 12.9766 15.4106C12.9766 17.0352 17.105 18.8442 23.0293 18.8442C28.9536 18.8442 33.0815 17.0347 33.0815 15.4106C33.0815 13.7866 28.9531 11.9766 23.0293 11.9766ZM23.0293 25.2139C20.1567 25.2139 17.4492 24.7949 15.4053 24.0347C13.2095 23.2173 12 22.0698 12 20.8032C12 20.6737 12.0514 20.5495 12.143 20.458C12.2346 20.3664 12.3588 20.3149 12.4883 20.3149C12.6178 20.3149 12.742 20.3664 12.8335 20.458C12.9251 20.5495 12.9766 20.6737 12.9766 20.8032C12.9766 22.4258 17.105 24.2373 23.0293 24.2373C28.9536 24.2373 33.0815 22.4258 33.0815 20.8032C33.0815 20.6737 33.133 20.5495 33.2246 20.458C33.3161 20.3664 33.4403 20.3149 33.5698 20.3149C33.6993 20.3149 33.8235 20.3664 33.9151 20.458C34.0067 20.5495 34.0581 20.6737 34.0581 20.8032C34.0581 22.0698 32.8491 23.2173 30.6528 24.0347C28.6089 24.7949 25.9014 25.2139 23.0293 25.2139ZM23.0293 30.6069C20.1567 30.6069 17.4492 30.188 15.4053 29.4277C13.2095 28.6104 12 27.4629 12 26.1963C12 26.0668 12.0514 25.9426 12.143 25.851C12.2346 25.7595 12.3588 25.708 12.4883 25.708C12.6178 25.708 12.742 25.7595 12.8335 25.851C12.9251 25.9426 12.9766 26.0668 12.9766 26.1963C12.9766 27.8208 17.105 29.6304 23.0293 29.6304C28.9536 29.6304 33.0815 27.8208 33.0815 26.1963C33.0815 26.0668 33.133 25.9426 33.2246 25.851C33.3161 25.7595 33.4403 25.708 33.5698 25.708C33.6993 25.708 33.8235 25.7595 33.9151 25.851C34.0067 25.9426 34.0581 26.0668 34.0581 26.1963C34.0581 27.4629 32.8491 28.6104 30.6528 29.4277C28.6089 30.1895 25.9014 30.6069 23.0293 30.6069Z" fill="#2329DB"/>
<path d="M23.0293 36C20.1567 36 17.4492 35.5811 15.4053 34.8203C13.2095 34.0034 12 32.856 12 31.5894V15.4106C12 15.2811 12.0514 15.1569 12.143 15.0654C12.2346 14.9738 12.3588 14.9224 12.4883 14.9224C12.6178 14.9224 12.742 14.9738 12.8335 15.0654C12.9251 15.1569 12.9766 15.2811 12.9766 15.4106V31.5894C12.9766 33.2139 17.105 35.0234 23.0293 35.0234C28.9536 35.0234 33.0815 33.2139 33.0815 31.5894V15.4106C33.0815 15.2811 33.133 15.1569 33.2246 15.0654C33.3161 14.9738 33.4403 14.9224 33.5698 14.9224C33.6993 14.9224 33.8235 14.9738 33.9151 15.0654C34.0067 15.1569 34.0581 15.2811 34.0581 15.4106V31.5894C34.0581 32.856 32.8491 34.0034 30.6528 34.8203C28.6089 35.5811 25.9014 36 23.0293 36Z" fill="#2329DB"/>
<path d="M31.1187 21.292C31.0867 21.2919 31.0548 21.2886 31.0234 21.2822C30.9922 21.2759 30.9616 21.2666 30.9321 21.2544C30.9026 21.2423 30.8743 21.2272 30.8477 21.2095C30.7941 21.1741 30.7482 21.1283 30.7129 21.0747C30.6953 21.048 30.6803 21.0197 30.668 20.9902C30.6558 20.9608 30.6464 20.9302 30.6401 20.8989C30.6271 20.8359 30.6271 20.771 30.6401 20.708C30.6524 20.6451 30.6771 20.5852 30.7127 20.5319C30.7483 20.4786 30.7942 20.4329 30.8477 20.3975C30.8743 20.3797 30.9026 20.3647 30.9321 20.3525C30.9616 20.3403 30.9922 20.331 31.0234 20.3247C31.0864 20.312 31.1514 20.312 31.2144 20.3247C31.3088 20.3438 31.3955 20.3902 31.4639 20.458C31.4864 20.481 31.5069 20.506 31.5249 20.5327C31.5604 20.5858 31.5851 20.6454 31.5977 20.708C31.61 20.771 31.61 20.8359 31.5977 20.8989C31.5914 20.9302 31.582 20.9608 31.5698 20.9902C31.5575 21.0197 31.5424 21.048 31.5249 21.0747C31.507 21.1014 31.4866 21.1262 31.4639 21.1489C31.4413 21.1716 31.4164 21.1919 31.3896 21.2095C31.3632 21.2271 31.335 21.2421 31.3057 21.2544C31.2762 21.2665 31.2456 21.2759 31.2144 21.2822C31.1829 21.2886 31.1508 21.2919 31.1187 21.292ZM29.1577 21.7822C29.1257 21.7821 29.0938 21.7789 29.0625 21.7725C29.0312 21.7662 29.0007 21.7568 28.9712 21.7446C28.9416 21.7325 28.9133 21.7174 28.8867 21.6997C28.86 21.6821 28.8351 21.6618 28.8125 21.6392C28.7669 21.5939 28.7309 21.5399 28.7065 21.4805C28.6943 21.451 28.685 21.4204 28.6787 21.3892C28.6723 21.357 28.6692 21.3243 28.6694 21.2915C28.6692 21.2587 28.6723 21.226 28.6787 21.1938C28.6852 21.1626 28.6945 21.132 28.7065 21.1025C28.7311 21.0434 28.7671 20.9896 28.8125 20.9443C28.8351 20.9215 28.86 20.9011 28.8867 20.8833C28.9133 20.8656 28.9416 20.8505 28.9712 20.8384C29.0007 20.8262 29.0312 20.8168 29.0625 20.8105C29.1253 20.7979 29.1901 20.7979 29.2529 20.8105C29.2842 20.8168 29.3148 20.8262 29.3442 20.8384C29.3738 20.8505 29.4021 20.8656 29.4287 20.8833C29.4822 20.919 29.528 20.965 29.5635 21.0186C29.5811 21.045 29.5962 21.0732 29.6084 21.1025C29.6207 21.132 29.63 21.1626 29.6362 21.1938C29.6428 21.226 29.646 21.2587 29.646 21.2915C29.6461 21.3243 29.6428 21.357 29.6362 21.3892C29.6302 21.4205 29.6208 21.4511 29.6084 21.4805C29.5962 21.51 29.5811 21.5383 29.5635 21.5649C29.5281 21.6185 29.4823 21.6644 29.4287 21.6997C29.4021 21.7174 29.3738 21.7325 29.3442 21.7446C29.3148 21.7568 29.2842 21.7662 29.2529 21.7725C29.2216 21.7789 29.1897 21.7821 29.1577 21.7822ZM27.1968 22.2725C27.164 22.2725 27.1313 22.2692 27.0991 22.2627C27.0679 22.2563 27.0373 22.247 27.0078 22.2349C26.9183 22.1984 26.8419 22.1358 26.7886 22.0552C26.7708 22.0286 26.7558 22.0003 26.7437 21.9707C26.7314 21.9412 26.7221 21.9107 26.7158 21.8794C26.7096 21.848 26.7065 21.8161 26.7065 21.7842C26.7064 21.7514 26.7095 21.7187 26.7158 21.6865C26.7231 21.6554 26.7332 21.625 26.7461 21.5957C26.7707 21.5366 26.8065 21.4829 26.8516 21.4375C26.8746 21.4149 26.8996 21.3945 26.9263 21.3765C26.9528 21.3588 26.9809 21.3438 27.0103 21.3315C27.0397 21.3194 27.0703 21.3101 27.1016 21.3037C27.1646 21.291 27.2295 21.291 27.2925 21.3037C27.3237 21.31 27.3543 21.3193 27.3838 21.3315C27.4133 21.3439 27.4415 21.3589 27.4683 21.3765C27.4948 21.3945 27.5197 21.4149 27.5425 21.4375C27.5652 21.4601 27.5854 21.485 27.603 21.5117C27.6207 21.5382 27.6357 21.5663 27.6479 21.5957C27.66 21.6252 27.6693 21.6558 27.6758 21.687C27.6823 21.7192 27.6856 21.7519 27.6855 21.7847C27.6855 21.8166 27.6822 21.8485 27.6758 21.8799C27.6695 21.9111 27.6602 21.9417 27.6479 21.9712C27.6358 22.0008 27.6208 22.0291 27.603 22.0557C27.5854 22.0824 27.5652 22.1073 27.5425 22.1299C27.5198 22.1524 27.4949 22.1727 27.4683 22.1904C27.4415 22.208 27.4133 22.223 27.3838 22.2353C27.3543 22.2476 27.3237 22.2569 27.2925 22.2632C27.261 22.2694 27.2289 22.2725 27.1968 22.2725ZM31.1187 26.6846C31.0867 26.6847 31.0548 26.6815 31.0234 26.6753C30.9922 26.669 30.9616 26.6597 30.9321 26.6475C30.9026 26.6353 30.8743 26.6203 30.8477 26.6025C30.8209 26.5848 30.796 26.5643 30.7734 26.5415C30.6821 26.4498 30.6307 26.3257 30.6304 26.1963C30.6303 26.1635 30.6336 26.1308 30.6401 26.0986C30.6464 26.0674 30.6558 26.0368 30.668 26.0073C30.6803 25.9778 30.6953 25.9496 30.7129 25.9228C30.7306 25.8962 30.7509 25.8713 30.7734 25.8486C30.796 25.826 30.8209 25.8057 30.8477 25.7881C30.8743 25.7703 30.9026 25.7553 30.9321 25.7432C30.9616 25.731 30.9922 25.7216 31.0234 25.7153C31.0864 25.7026 31.1514 25.7026 31.2144 25.7153C31.277 25.7279 31.3365 25.7526 31.3896 25.7881C31.4164 25.8057 31.4413 25.826 31.4639 25.8486C31.4864 25.8715 31.5069 25.8963 31.5249 25.9228C31.5424 25.9496 31.5575 25.9778 31.5698 26.0073C31.582 26.0368 31.5914 26.0674 31.5977 26.0986C31.604 26.1308 31.6072 26.1635 31.6069 26.1963C31.6066 26.3257 31.5552 26.4498 31.4639 26.5415C31.4413 26.5643 31.4164 26.5848 31.3896 26.6025C31.3365 26.638 31.277 26.6627 31.2144 26.6753C31.1828 26.6815 31.1508 26.6846 31.1187 26.6846ZM29.1577 27.1748C29.1257 27.1749 29.0939 27.1718 29.0625 27.1655C29.0312 27.1592 29.0007 27.1499 28.9712 27.1377C28.9416 27.1256 28.9133 27.1105 28.8867 27.0928C28.86 27.0752 28.8351 27.0549 28.8125 27.0322C28.7899 27.0094 28.7695 26.9846 28.7515 26.958C28.7339 26.9313 28.7189 26.903 28.7065 26.8735C28.6943 26.8441 28.685 26.8135 28.6787 26.7822C28.6663 26.7192 28.6663 26.6543 28.6787 26.5913C28.685 26.56 28.6943 26.5295 28.7065 26.5C28.7189 26.4705 28.7339 26.4422 28.7515 26.4155C28.7695 26.389 28.7899 26.3641 28.8125 26.3413C28.8351 26.3186 28.86 26.2983 28.8867 26.2808C28.9133 26.263 28.9416 26.248 28.9712 26.2358C29.0007 26.2236 29.0312 26.2143 29.0625 26.208C29.1253 26.1953 29.1901 26.1953 29.2529 26.208C29.2842 26.2143 29.3148 26.2236 29.3442 26.2358C29.3738 26.248 29.4021 26.263 29.4287 26.2808C29.4555 26.2983 29.4803 26.3186 29.5029 26.3413C29.5255 26.364 29.5458 26.3889 29.5635 26.4155C29.581 26.4422 29.5961 26.4705 29.6084 26.5C29.6208 26.5294 29.6302 26.56 29.6362 26.5913C29.6492 26.6543 29.6492 26.7192 29.6362 26.7822C29.6302 26.8135 29.6208 26.8441 29.6084 26.8735C29.5961 26.903 29.581 26.9313 29.5635 26.958C29.5458 26.9847 29.5255 27.0095 29.5029 27.0322C29.4803 27.0549 29.4555 27.0752 29.4287 27.0928C29.4021 27.1105 29.3738 27.1256 29.3442 27.1377C29.3148 27.1499 29.2842 27.1592 29.2529 27.1655C29.2216 27.1718 29.1897 27.1749 29.1577 27.1748ZM27.1968 27.665C27.164 27.6652 27.1313 27.6621 27.0991 27.6558C27.0679 27.6494 27.0373 27.6401 27.0078 27.6279C26.9487 27.6032 26.8948 27.5674 26.8491 27.5225C26.8039 27.477 26.768 27.4231 26.7437 27.3638C26.7314 27.3343 26.7221 27.3037 26.7158 27.2725C26.7096 27.2411 26.7065 27.2092 26.7065 27.1772C26.7068 27.0477 26.758 26.9236 26.8491 26.8315C26.8721 26.8091 26.8971 26.7889 26.9238 26.771C26.9503 26.7534 26.9784 26.7383 27.0078 26.7261C27.0373 26.7139 27.0679 26.7046 27.0991 26.6982C27.1939 26.679 27.2922 26.6885 27.3815 26.7255C27.4709 26.7624 27.5471 26.8252 27.6006 26.9058C27.6181 26.9325 27.6332 26.9608 27.6455 26.9902C27.6577 27.0197 27.667 27.0503 27.6733 27.0815C27.6864 27.1445 27.6864 27.2095 27.6733 27.2725C27.667 27.3037 27.6577 27.3343 27.6455 27.3638C27.6332 27.3932 27.6181 27.4215 27.6006 27.4482C27.5652 27.5018 27.5194 27.5477 27.4658 27.583C27.4391 27.6005 27.4108 27.6156 27.3813 27.6279C27.3519 27.6401 27.3213 27.6495 27.29 27.6558C27.2593 27.6619 27.2281 27.665 27.1968 27.665ZM31.1187 32.0776C31.0867 32.0777 31.0548 32.0746 31.0234 32.0684C30.9922 32.0621 30.9616 32.0527 30.9321 32.0405C30.9026 32.0285 30.8743 32.0137 30.8477 31.9961C30.821 31.9782 30.7962 31.9577 30.7734 31.9351C30.7508 31.9125 30.7305 31.8876 30.7129 31.8608C30.6953 31.8343 30.6802 31.8062 30.668 31.7769C30.6558 31.7474 30.6465 31.7168 30.6401 31.6855C30.6336 31.6534 30.6303 31.6207 30.6304 31.5879C30.6305 31.5559 30.6337 31.524 30.6401 31.4927C30.6464 31.4614 30.6558 31.4308 30.668 31.4014C30.6801 31.3718 30.6952 31.3435 30.7129 31.3169C30.7482 31.2633 30.7941 31.2175 30.8477 31.1821C30.8743 31.1644 30.9026 31.1493 30.9321 31.1372C30.9616 31.125 30.9922 31.1157 31.0234 31.1094C31.0864 31.0967 31.1514 31.0967 31.2144 31.1094C31.2456 31.1157 31.2762 31.1251 31.3057 31.1372C31.335 31.1494 31.3632 31.1645 31.3896 31.1821C31.4164 31.1997 31.4413 31.22 31.4639 31.2427C31.4866 31.2654 31.507 31.2902 31.5249 31.3169C31.5426 31.3435 31.5577 31.3718 31.5698 31.4014C31.582 31.4308 31.5914 31.4614 31.5977 31.4927C31.6039 31.524 31.607 31.5559 31.6069 31.5879C31.6071 31.6207 31.604 31.6534 31.5977 31.6855C31.5913 31.7168 31.582 31.7474 31.5698 31.7769C31.5393 31.8512 31.4908 31.9168 31.4288 31.9679C31.3668 32.019 31.2931 32.054 31.2144 32.0698C31.1828 32.0756 31.1507 32.0782 31.1187 32.0776ZM29.1577 32.5679C29.1257 32.568 29.0939 32.5648 29.0625 32.5586C29.0312 32.5523 29.0007 32.543 28.9712 32.5308C28.9416 32.5186 28.9133 32.5036 28.8867 32.4858C28.8333 32.45 28.7873 32.404 28.7515 32.3506C28.7342 32.324 28.7193 32.2959 28.707 32.2666C28.6946 32.2372 28.6853 32.2066 28.6792 32.1753C28.6727 32.1431 28.6694 32.1104 28.6694 32.0776C28.6695 32.0457 28.6728 32.0138 28.6792 31.9824C28.6853 31.9511 28.6946 31.9205 28.707 31.8911C28.7192 31.8616 28.7341 31.8334 28.7515 31.8066C28.7694 31.78 28.7898 31.7551 28.8125 31.7324C28.8351 31.7097 28.86 31.6895 28.8867 31.6719C28.9133 31.6541 28.9416 31.6391 28.9712 31.627C29.0007 31.6147 29.0312 31.6054 29.0625 31.5991C29.1253 31.5864 29.1901 31.5864 29.2529 31.5991C29.2842 31.6054 29.3148 31.6147 29.3442 31.627C29.3738 31.6391 29.4021 31.6541 29.4287 31.6719C29.4555 31.6895 29.4803 31.7097 29.5029 31.7324C29.5255 31.7551 29.5458 31.78 29.5635 31.8066C29.5812 31.8332 29.5963 31.8615 29.6084 31.8911C29.6208 31.9205 29.6302 31.9511 29.6362 31.9824C29.6426 32.0138 29.6459 32.0457 29.646 32.0776C29.646 32.1104 29.6428 32.1431 29.6362 32.1753C29.6302 32.2066 29.6208 32.2372 29.6084 32.2666C29.5962 32.296 29.5811 32.3241 29.5635 32.3506C29.5459 32.3773 29.5256 32.4022 29.5029 32.4248C29.4802 32.4475 29.4554 32.4679 29.4287 32.4858C29.4021 32.5036 29.3738 32.5186 29.3442 32.5308C29.3148 32.543 29.2842 32.5523 29.2529 32.5586C29.2216 32.5648 29.1897 32.568 29.1577 32.5679ZM27.1968 33.0586C27.164 33.0586 27.1313 33.0554 27.0991 33.0488C27.0679 33.0425 27.0373 33.0331 27.0078 33.021C26.9186 32.984 26.8424 32.9214 26.7888 32.8411C26.7351 32.7608 26.7065 32.6664 26.7065 32.5698C26.7065 32.5379 26.7096 32.506 26.7158 32.4746C26.7221 32.4433 26.7314 32.4128 26.7437 32.3833C26.768 32.324 26.8039 32.2701 26.8491 32.2246C26.8948 32.1797 26.9487 32.1439 27.0078 32.1191C27.0373 32.107 27.0679 32.0977 27.0991 32.0913C27.1621 32.0786 27.227 32.0786 27.29 32.0913C27.3213 32.0976 27.3519 32.1069 27.3813 32.1191C27.4108 32.1315 27.4391 32.1465 27.4658 32.1641C27.5194 32.1994 27.5652 32.2453 27.6006 32.2988C27.6181 32.3255 27.6332 32.3538 27.6455 32.3833C27.6577 32.4128 27.667 32.4433 27.6733 32.4746C27.6797 32.5059 27.683 32.5378 27.6831 32.5698C27.6831 32.6502 27.6633 32.7293 27.6254 32.8002C27.5875 32.8711 27.5327 32.9315 27.4658 32.9761C27.4391 32.9936 27.4108 33.0087 27.3813 33.021C27.3519 33.0332 27.3213 33.0425 27.29 33.0488C27.2593 33.0551 27.2281 33.0584 27.1968 33.0586Z" fill="#2329DB"/>
</svg>
