<svg width="24" height="24" viewBox="0 0 24 24" fill="none" xmlns="http://www.w3.org/2000/svg">
<path d="M24 16.5C24 15.673 23.327 15 22.5 15H7.5C6.67298 15 6 15.673 6 16.5V18.5C6 18.885 6.15 19.234 6.39 19.5C6.15 19.766 6 20.115 6 20.5V22.5C6 23.327 6.67298 24 7.5 24H22.5C23.327 24 24 23.327 24 22.5V20.5C24 20.115 23.85 19.766 23.61 19.5C23.85 19.234 24 18.885 24 18.5V16.5ZM23 22.5C23 22.776 22.776 23 22.5 23H7.5C7.224 23 6.99998 22.776 6.99998 22.5V20.5C6.99998 20.224 7.224 20 7.5 20H22.5C22.776 20 23 20.224 23 20.5V22.5ZM23 18.5C23 18.776 22.776 19 22.5 19H7.5C7.224 19 6.99998 18.776 6.99998 18.5V16.5C6.99998 16.224 7.224 16 7.5 16H22.5C22.776 16 23 16.224 23 16.5V18.5Z" fill="#1E2837"/>
<path d="M4.66898 22.287C2.406 21.613 0.999984 20.545 0.999984 19.5V16.495C1.743 17.191 2.87297 17.791 4.356 18.236C4.404 18.25 4.45298 18.257 4.5 18.257C4.71502 18.257 4.914 18.118 4.97902 17.901C5.05903 17.636 4.90903 17.358 4.644 17.2779C2.39602 16.6039 0.999984 15.54 0.999984 14.4999V11.4819C2.60297 12.984 5.985 13.9999 9.99998 13.9999C14.015 13.9999 17.397 12.9839 19 11.4819V13.5C19 13.776 19.224 14 19.5 14C19.776 14 20 13.776 20 13.5V4.5C20 1.977 15.607 0 10 0C4.39303 0 0 1.977 0 4.5V19.5C0 21.051 1.59802 22.415 4.38398 23.245C4.43198 23.259 4.47998 23.266 4.527 23.266C4.743 23.266 4.941 23.126 5.00498 22.909C5.085 22.644 4.93402 22.366 4.66898 22.287ZM9.99998 0.999984C15.304 0.999984 19 2.84498 19 4.5C19 6.15501 15.304 8.00002 9.99998 8.00002C4.69598 8.00002 0.999984 6.15501 0.999984 4.5C0.999984 2.84498 4.69598 0.999984 9.99998 0.999984ZM0.999984 6.48202C2.60302 7.98398 5.985 9 9.99998 9C14.015 9 17.397 7.98398 19 6.48202V9.50002C19 11.155 15.304 13 9.99998 13C4.69598 13 0.999984 11.155 0.999984 9.50002V6.48202ZM21.5 21H17.5C17.224 21 17 21.224 17 21.5C17 21.776 17.224 22 17.5 22H21.5C21.776 22 22 21.776 22 21.5C22 21.224 21.776 21 21.5 21Z" fill="#1E2837"/>
<path d="M8.49998 17C8.22398 17 7.99997 17.224 7.99997 17.5C7.99997 17.776 8.22398 18 8.49998 18C8.77598 18 9 17.776 9 17.5C9 17.224 8.77598 17 8.49998 17ZM8.49998 21C8.22398 21 7.99997 21.224 7.99997 21.5C7.99997 21.776 8.22398 22 8.49998 22C8.77598 22 9 21.776 9 21.5C9 21.224 8.77598 21 8.49998 21ZM21.5 17H17.5C17.224 17 17 17.224 17 17.5C17 17.776 17.224 18 17.5 18H21.5C21.776 18 22 17.776 22 17.5C22 17.224 21.776 17 21.5 17Z" fill="#1E2837"/>
</svg>
