<svg width="26" height="24" viewBox="0 0 26 24" fill="none" xmlns="http://www.w3.org/2000/svg">
<path d="M25.31 10.0043L13.1427 0.133704C13.0361 0.047207 12.903 0 12.7657 0C12.6284 0 12.4953 0.047207 12.3887 0.133704L0.221422 10.0043C0.16039 10.0538 0.109707 10.1149 0.0722684 10.184C0.0348297 10.2531 0.0113679 10.3289 0.00322276 10.407C-0.00492237 10.4852 0.00240871 10.5642 0.0247974 10.6395C0.047186 10.7148 0.0841938 10.785 0.133707 10.8461L2.11982 13.2945C2.2198 13.4177 2.36465 13.4962 2.5225 13.5127C2.68034 13.5291 2.83826 13.4822 2.96151 13.3822L3.34273 13.073V22.3033C3.34325 22.7531 3.52218 23.1844 3.84028 23.5025C4.15838 23.8206 4.58967 23.9995 5.03952 24H20.4919C20.9417 23.9995 21.373 23.8206 21.6911 23.5025C22.0092 23.1844 22.1882 22.7531 22.1887 22.3033V13.0731L22.5698 13.3822C22.6308 13.4318 22.701 13.4688 22.7763 13.4912C22.8517 13.5135 22.9307 13.5209 23.0088 13.5127C23.087 13.5046 23.1628 13.4811 23.2319 13.4437C23.301 13.4062 23.362 13.3556 23.4115 13.2945L25.3977 10.8461C25.4472 10.7851 25.4842 10.7149 25.5066 10.6396C25.529 10.5642 25.5363 10.4852 25.5282 10.4071C25.5201 10.3289 25.4966 10.2531 25.4592 10.184C25.4217 10.1149 25.3711 10.0538 25.31 10.0043ZM15.0934 22.8032H10.438V16.3523H15.0934V22.8032ZM20.9919 22.3033C20.9917 22.4358 20.939 22.5629 20.8453 22.6566C20.7515 22.7504 20.6244 22.8031 20.4919 22.8032H16.2902V16.1181C16.2899 15.863 16.1884 15.6184 16.008 15.438C15.8276 15.2576 15.583 15.1561 15.3278 15.1557H10.2038C9.94865 15.1561 9.70405 15.2576 9.52364 15.438C9.34323 15.6184 9.24172 15.863 9.24138 16.1181V22.8032H5.03952C4.90696 22.8031 4.77988 22.7504 4.68614 22.6566C4.5924 22.5629 4.53967 22.4358 4.53951 22.3033V12.1019L12.7657 5.42842L20.9919 12.1019V22.3033ZM22.8591 12.0758L13.1427 4.19319C13.0361 4.1067 12.903 4.05949 12.7657 4.05949C12.6284 4.05949 12.4953 4.1067 12.3887 4.19319L2.67223 12.0757L1.4401 10.5568L12.7657 1.36893L24.0913 10.5568L22.8591 12.0758Z" fill="white"/>
</svg>
