<svg width="22" height="18" viewBox="0 0 22 18" fill="none" xmlns="http://www.w3.org/2000/svg">
<path d="M21.8476 3.2509V11.5141C21.8476 11.8689 21.56 12.1566 21.2051 12.1566H20.2112V5.63953C20.2112 4.86913 19.5868 4.24475 18.8164 4.24475H10.3639C10.3221 4.24475 10.2839 4.22111 10.2654 4.18344L9.39329 2.41466C9.15626 1.93446 8.67708 1.6368 8.14205 1.6368H5.84375V0.642516C5.84379 0.287677 6.13147 0 6.48631 0H11.0635C11.106 0 11.1436 0.0234682 11.1619 0.0613159L12.0342 1.83043C12.271 2.31016 12.7504 2.60829 13.2854 2.60829H21.205C21.5599 2.60829 21.8476 2.89601 21.8476 3.2509H21.8476Z" fill="#1E2837"/>
<path d="M18.9256 5.63954V14.4356C18.9256 14.7905 18.6379 15.0782 18.2831 15.0782H17.2893V8.56086C17.2893 7.79068 16.6648 7.16613 15.8946 7.16613H7.44202C7.40003 7.16613 7.36184 7.14266 7.34353 7.10498L6.47129 5.33621C6.23063 4.84867 5.74693 4.55834 5.22005 4.55834H2.92188V3.56436C2.92188 3.20952 3.20959 2.92184 3.56448 2.92184H8.14158C8.18391 2.92184 8.22159 2.94501 8.24006 2.98265L9.11214 4.75176C9.34917 5.23162 9.82834 5.52984 10.3634 5.52984H18.8159C18.845 5.52992 18.8728 5.5415 18.8934 5.56205C18.9139 5.5826 18.9255 5.61048 18.9256 5.63954Z" fill="#1E2837"/>
<path d="M15.8942 8.45123H7.44163C6.9066 8.45123 6.42725 8.15318 6.19039 7.67332C5.7509 6.78145 5.9444 7.17477 5.31819 5.90455C5.30927 5.88604 5.29527 5.87046 5.27782 5.85963C5.26037 5.84879 5.2402 5.84315 5.21966 5.84336H0.642516C0.28772 5.84336 0 6.13108 0 6.48592V17.3574C0 17.7123 0.287677 18 0.642559 18H15.3613C15.7162 18 16.0038 17.7123 16.0038 17.3574V8.56089C16.0038 8.53183 15.9922 8.50398 15.9716 8.48343C15.9511 8.46288 15.9232 8.45131 15.8942 8.45123ZM12.1228 15.9173C12.1228 16.2737 11.8325 16.5599 11.4803 16.5599C11.1286 16.5599 10.8377 16.274 10.8377 15.9173V15.4991C10.8377 15.1461 11.1243 14.8565 11.4803 14.8565C11.8358 14.8565 12.1228 15.1461 12.1228 15.4991V15.9173ZM14.2296 15.9173C14.2296 16.2737 13.9391 16.5599 13.5871 16.5599C13.2332 16.5599 12.9444 16.2728 12.9444 15.9173V15.4991C12.9444 15.1458 13.2311 14.8565 13.5871 14.8565C13.9426 14.8565 14.2296 15.1461 14.2296 15.4991V15.9173Z" fill="#1E2837"/>
</svg>
