<svg width="42" height="40" viewBox="0 0 42 40" fill="none" xmlns="http://www.w3.org/2000/svg">
<path fill-rule="evenodd" clip-rule="evenodd" d="M11.0795 34.989L11.7238 36.1274L11.7248 36.1291C12.2074 36.9875 11.9014 38.0829 11.0478 38.565L8.92189 39.7699L8.91987 39.7711C8.06142 40.2536 6.96612 39.9477 6.48375 39.0938L0.231941 28.0469C-0.255047 27.1878 0.0509182 26.0914 0.905502 25.6088L3.03397 24.4038L3.03448 24.4035C3.88872 23.921 4.98445 24.2244 5.47085 25.0785L5.47177 25.0801L6.00324 26.0192L11.6412 22.755C13.2944 21.7989 14.9824 21.1696 16.7981 21.7592C18.5904 22.3403 21.5167 23.5925 24.503 24.1321C24.5327 24.1375 24.5619 24.1448 24.5906 24.1542C26.0544 24.6281 26.9463 26.107 26.5466 27.5934C26.467 27.8898 26.3539 28.159 26.2097 28.3975C26.6063 28.3053 26.9924 28.1521 27.3708 27.9316L34.9514 23.5166C37.6489 21.9451 39.4453 22.101 40.4633 22.7838C41.3285 23.3643 41.7277 24.3562 41.7019 25.3291C41.6758 26.3111 41.2105 27.2506 40.4403 27.7249L26.6848 36.194C25.2574 37.075 23.6939 37.2815 22.0741 36.8493L22.0733 36.8492L12.3644 34.2471L11.0795 34.989ZM6.66587 27.19L10.417 33.8182L11.933 32.9427C12.0095 32.8986 12.094 32.8699 12.1816 32.8584C12.2691 32.8469 12.3581 32.8527 12.4435 32.8756L22.421 35.5495C23.6704 35.8828 24.8773 35.7288 25.9783 35.0493L25.9789 35.0488L39.7349 26.5794C40.1116 26.3475 40.3115 25.8831 40.351 25.4056C40.4114 24.6721 40.0644 23.8642 39.157 23.6741C38.3414 23.5031 37.1916 23.7684 35.6285 24.679L28.0481 29.0939C26.8492 29.7925 25.5927 29.9852 24.2233 29.7671L24.221 29.7668L23.2811 29.6139C23.2714 29.6123 23.2617 29.6105 23.2521 29.6085C21.5429 29.2576 19.9577 28.7412 18.1987 28.2684C17.8402 28.1721 17.6273 27.8028 17.7237 27.4443C17.82 27.0858 18.1893 26.873 18.5478 26.9693C20.2703 27.4322 21.823 27.9398 23.4955 28.2852C24.3902 28.3856 25.0418 28.0101 25.2473 27.2445L25.2474 27.2442C25.4564 26.4674 24.9714 25.7121 24.2152 25.4471C21.1787 24.8908 18.2059 23.6299 16.383 23.0388L16.3828 23.0387C14.9438 22.5715 13.6249 23.1618 12.3148 23.9195L6.66587 27.19ZM4.30164 25.7439L4.30105 25.7428C4.17955 25.5314 3.90823 25.455 3.69618 25.5748L1.56822 26.7795L1.56763 26.7798C1.35608 26.8993 1.28176 27.1709 1.40224 27.3835L1.4025 27.3839L7.65456 38.4312L7.65481 38.4317C7.77462 38.6437 8.04687 38.7182 8.26001 38.5987L10.3845 37.3946L10.3854 37.3941C10.5975 37.2743 10.6719 37.0019 10.5524 36.7887L4.30164 25.7439ZM3.43377 26.9458C3.9163 26.874 4.36436 27.2071 4.43616 27.6896C4.50511 28.1722 4.17199 28.6231 3.68946 28.692C3.20692 28.7638 2.75886 28.4278 2.68706 27.9452C2.61812 27.4628 2.95132 27.0147 3.43377 26.9458ZM18.4648 19.2446C18.3579 19.4256 18.264 19.6139 18.1837 19.8082C18.1329 19.9313 18.0467 20.0365 17.936 20.1105C17.8254 20.1845 17.6952 20.224 17.5621 20.224C17.4289 20.224 17.2988 20.1845 17.1881 20.1105C17.0774 20.0365 16.9912 19.9313 16.9404 19.8082C16.7151 19.2642 16.3848 18.77 15.9685 18.3536C15.5521 17.9373 15.0579 17.6071 14.5139 17.3817C14.3909 17.3309 14.2857 17.2447 14.2116 17.134C14.1376 17.0234 14.0981 16.8932 14.0981 16.7601C14.0981 16.6269 14.1376 16.4968 14.2116 16.3861C14.2857 16.2754 14.3909 16.1892 14.5139 16.1384C15.2003 15.8542 15.8052 15.4039 16.2743 14.8279C16.029 13.868 15.9052 12.881 15.9058 11.8903C15.9058 9.32021 16.7284 6.93597 18.124 4.98742C17.8673 4.81139 17.5929 4.66271 17.3053 4.54382C17.1823 4.49293 17.0771 4.40669 17.0032 4.29603C16.9292 4.18537 16.8897 4.05525 16.8897 3.92214C16.8897 3.78903 16.9292 3.65891 17.0032 3.54825C17.0771 3.43758 17.1823 3.35135 17.3053 3.30045C18.4038 2.84539 19.2767 1.97257 19.7317 0.874006C19.7826 0.750946 19.8688 0.64574 19.9794 0.571715C20.0901 0.497689 20.2203 0.458174 20.3534 0.458174C20.4866 0.458174 20.6167 0.497689 20.7274 0.571715C20.838 0.64574 20.9243 0.750946 20.9751 0.874006C21.1123 1.20605 21.2892 1.52029 21.5019 1.80989C23.3293 0.663639 25.4878 0 27.796 0C34.3442 0 39.6829 5.34199 39.6829 11.8903C39.6829 18.4385 34.3443 23.7772 27.796 23.7772C24.0205 23.7772 20.6455 22.0028 18.4648 19.2446ZM17.3494 13.3305C17.5109 13.2767 17.6868 13.2862 17.8417 13.3569C17.9965 13.4277 18.1188 13.5546 18.1837 13.7119C18.6388 14.8105 19.5116 15.6833 20.6102 16.1384C20.7332 16.1892 20.8385 16.2754 20.9125 16.3861C20.9865 16.4968 21.026 16.6269 21.026 16.7601C21.026 16.8932 20.9865 17.0234 20.9125 17.134C20.8385 17.2447 20.7332 17.3309 20.6102 17.3817C20.1456 17.5739 19.7167 17.8431 19.3416 18.178C21.2674 20.7568 24.3424 22.4319 27.796 22.4319C33.6032 22.4319 38.3377 17.6974 38.3377 11.8903C38.3377 6.08298 33.6033 1.34527 27.796 1.34527C25.8615 1.34527 24.0457 1.87119 22.4842 2.78723C22.7687 2.9939 23.0766 3.16618 23.4015 3.30045C23.5246 3.35129 23.6298 3.4375 23.7038 3.54817C23.7779 3.65884 23.8174 3.78899 23.8174 3.92214C23.8174 4.05528 23.7779 4.18543 23.7038 4.2961C23.6298 4.40678 23.5246 4.49299 23.4015 4.54382C22.8576 4.76914 22.3633 5.09939 21.947 5.51572C21.5307 5.93205 21.2004 6.42631 20.9751 6.97027C20.9243 7.09333 20.838 7.19853 20.7274 7.27256C20.6167 7.34659 20.4866 7.3861 20.3534 7.3861C20.2203 7.3861 20.0901 7.34659 19.9794 7.27256C19.8688 7.19853 19.7826 7.09333 19.7317 6.97027C19.5755 6.59237 19.3681 6.23774 19.1153 5.91633C17.9404 7.61634 17.251 9.67544 17.251 11.8903C17.251 12.3787 17.2846 12.8595 17.3494 13.3305ZM17.5621 15.3547C17.1773 15.8999 16.702 16.3752 16.1568 16.7601C16.702 17.1449 17.1773 17.6202 17.5621 18.1654C17.9469 17.6202 18.4222 17.1449 18.9674 16.7601C18.4222 16.3752 17.9469 15.8999 17.5621 15.3547ZM20.3534 2.51675C19.9686 3.06199 19.4933 3.53732 18.948 3.92214C19.4933 4.30695 19.9686 4.78228 20.3534 5.32753C20.7382 4.78228 21.2136 4.30695 21.7588 3.92214C21.2136 3.53732 20.7382 3.06199 20.3534 2.51675ZM26.3211 11.9237L31.297 6.89594L31.2983 6.89468C32.2057 5.98259 33.6866 5.97813 34.5987 6.88552C35.5106 7.79257 35.5162 9.26833 34.6092 10.1848L34.6088 10.1851C32.396 12.4179 30.2 14.6642 27.9772 16.887C27.0655 17.7988 25.5851 17.7988 24.6733 16.887L20.9888 13.1991C20.0774 12.2878 20.0761 10.8126 20.9875 9.89649L20.9888 9.89531C21.9005 8.98355 23.3809 8.98355 24.2926 9.89531L26.3211 11.9237ZM25.8479 13.3531L23.3414 10.8465C22.9549 10.46 22.3274 10.4598 21.9407 10.8459C21.5541 11.235 21.5531 11.861 21.94 12.2479L25.6246 15.9358C26.0113 16.3225 26.6392 16.3225 27.026 15.9358C29.2472 13.7145 31.4417 11.4698 33.653 9.23848C34.0377 8.84978 34.0367 8.22389 33.65 7.83923C33.2637 7.45499 32.6366 7.45709 32.2523 7.84318L26.8016 13.3506C26.7393 13.4137 26.6651 13.4637 26.5834 13.498C26.5016 13.5322 26.4139 13.55 26.3253 13.5502C26.2366 13.5504 26.1488 13.5331 26.0669 13.4993C25.985 13.4655 25.9106 13.4158 25.8479 13.3531ZM12.2395 6.45663C12.4648 7.00059 12.7951 7.49485 13.2114 7.91118C13.6277 8.32751 14.122 8.65776 14.6659 8.88308C14.789 8.93391 14.8942 9.02012 14.9682 9.13079C15.0423 9.24146 15.0818 9.37161 15.0818 9.50476C15.0818 9.63791 15.0423 9.76806 14.9682 9.87873C14.8942 9.9894 14.789 10.0756 14.6659 10.1264C14.122 10.3518 13.6277 10.682 13.2114 11.0983C12.7951 11.5147 12.4648 12.0089 12.2395 12.5529C12.1887 12.676 12.1024 12.7812 11.9918 12.8552C11.8811 12.9292 11.751 12.9687 11.6178 12.9687C11.4847 12.9687 11.3545 12.9292 11.2438 12.8552C11.1332 12.7812 11.047 12.676 10.9961 12.5529C10.7708 12.0089 10.4406 11.5147 10.0242 11.0983C9.6079 10.682 9.11364 10.3518 8.56968 10.1264C8.44662 10.0756 8.34141 9.9894 8.26739 9.87873C8.19336 9.76806 8.15385 9.63791 8.15385 9.50476C8.15385 9.37161 8.19336 9.24146 8.26739 9.13079C8.34141 9.02012 8.44662 8.93391 8.56968 8.88308C9.11364 8.65776 9.6079 8.32751 10.0242 7.91118C10.4406 7.49485 10.7708 7.00059 10.9961 6.45663C11.047 6.33357 11.1332 6.22836 11.2438 6.15434C11.3545 6.08031 11.4847 6.0408 11.6178 6.0408C11.751 6.0408 11.8811 6.08031 11.9918 6.15434C12.1024 6.22836 12.1887 6.33357 12.2395 6.45663ZM11.6178 8.09937C11.233 8.64461 10.7577 9.11994 10.2124 9.50476C10.7577 9.88958 11.233 10.3649 11.6178 10.9101C12.0026 10.3649 12.478 9.88958 13.0232 9.50476C12.478 9.11994 12.0026 8.64461 11.6178 8.09937Z" fill="#1E2837"/>
</svg>
