<svg width="42" height="40" viewBox="0 0 42 40" fill="none" xmlns="http://www.w3.org/2000/svg">
<path d="M36.6756 22.8653C37.1275 22.8653 37.4938 22.499 37.4938 22.0471C37.4938 21.5952 37.1275 21.2289 36.6756 21.2289C36.2237 21.2289 35.8574 21.5952 35.8574 22.0471C35.8574 22.499 36.2237 22.8653 36.6756 22.8653Z" fill="#1E2837"/>
<path d="M22.4417 11.2869C22.8125 11.5472 23.3238 11.4575 23.5838 11.0869L26.067 7.54875L30.2535 15.3245C30.323 15.4536 30.4259 15.5617 30.5515 15.6375C30.677 15.7134 30.8206 15.7541 30.9673 15.7556H30.9753C31.2709 15.7556 31.5439 15.5963 31.6894 15.3385L38.5677 3.13982L38.829 4.65324C38.8979 5.05219 39.2444 5.33373 39.636 5.33365C39.6823 5.33365 39.7292 5.32972 39.7764 5.32154C40.2226 5.24446 40.5218 4.82031 40.4447 4.37415L39.8068 0.680244C39.7866 0.563483 39.7414 0.452483 39.6742 0.354889C39.607 0.257295 39.5194 0.175428 39.4175 0.114926C39.3157 0.054424 39.2019 0.0167257 39.084 0.00442766C38.9662 -0.00787037 38.847 0.00552425 38.7349 0.0436887L35.186 1.25126C34.7573 1.39707 34.5281 1.86278 34.674 2.29143C34.8199 2.72017 35.2858 2.94934 35.7142 2.80346L37.1507 2.31467L30.9919 13.2373L26.8809 5.60185C26.8147 5.47874 26.718 5.37463 26.6001 5.29941C26.4822 5.2242 26.3471 5.18039 26.2075 5.17214C26.0679 5.16372 25.9284 5.19124 25.8025 5.25206C25.6765 5.31288 25.5683 5.40497 25.488 5.51954L22.2416 10.145C21.9815 10.5155 22.0711 11.0268 22.4417 11.2869Z" fill="#1E2837"/>
<path d="M41.8916 10.7904C41.8916 10.3376 41.5245 9.9706 41.0718 9.9706H36.6758C36.2231 9.9706 35.856 10.3376 35.856 10.7904V18.3778C35.856 18.8306 36.223 19.1976 36.6758 19.1976C37.1286 19.1976 37.4957 18.8306 37.4957 18.3778V11.6103H40.252V35.1045H37.4957V25.7082C37.4957 25.2554 37.1286 24.8883 36.6758 24.8883C36.223 24.8883 35.856 25.2554 35.856 25.7082V35.1044H33.9935V19.2995C33.9935 18.8467 33.6265 18.4797 33.1737 18.4797H28.7777C28.325 18.4797 27.9579 18.8467 27.9579 19.2995V35.1045H26.1053V14.4997C26.1053 14.0469 25.7383 13.6799 25.2855 13.6799H20.8895C20.4368 13.6799 20.0697 14.0469 20.0697 14.4997V21.0721C17.9713 18.6571 14.879 17.1277 11.436 17.1277C5.13025 17.1277 0 22.2579 0 28.5638C0 34.8697 5.13025 40 11.4362 40C14.5391 40 17.3568 38.7572 19.4192 36.7441H41.0718C41.5245 36.7441 41.8916 36.377 41.8916 35.9242C41.8916 35.8948 41.8899 35.8657 41.8868 35.8371C41.8899 35.8085 41.8916 35.7794 41.8916 35.75V10.7904ZM29.5976 20.1192H32.354V35.1045H29.5976V20.1192ZM21.7094 15.3195H24.4658V35.1045H20.8119C22.1097 33.2497 22.8724 30.9944 22.8724 28.5638C22.8724 26.7636 22.4537 25.0595 21.7095 23.5429V15.3195H21.7094ZM12.256 38.3258V36.975C12.256 36.5223 11.8889 36.1552 11.4362 36.1552C10.9834 36.1552 10.6163 36.5223 10.6163 36.975V38.3258C5.86711 37.9304 2.06954 34.1329 1.67419 29.3837H3.02495C3.47766 29.3837 3.84478 29.0166 3.84478 28.5638C3.84478 28.111 3.47774 27.744 3.02495 27.744H1.67419C2.06954 22.9947 5.86711 19.1972 10.6163 18.8019V20.1526C10.6163 20.6054 10.9834 20.9725 11.4362 20.9725C11.8889 20.9725 12.256 20.6054 12.256 20.1526V18.8019C17.0053 19.1972 20.8028 22.9948 21.1981 27.744H19.8474C19.3947 27.744 19.0275 28.111 19.0275 28.5638C19.0275 29.0166 19.3946 29.3837 19.8474 29.3837H21.1981C20.8028 34.1329 17.0052 37.9304 12.256 38.3258Z" fill="#1E2837"/>
<path d="M15.5417 27.744H12.2559V23.7183C12.2559 23.2655 11.8888 22.8985 11.436 22.8985C10.9833 22.8985 10.6162 23.2655 10.6162 23.7183V28.5638C10.6162 29.0166 10.9833 29.3837 11.436 29.3837H15.5417C15.9944 29.3837 16.3615 29.0166 16.3615 28.5638C16.3615 28.111 15.9945 27.744 15.5417 27.744Z" fill="#1E2837"/>
</svg>
