<svg width="44" height="40" viewBox="0 0 44 40" fill="none" xmlns="http://www.w3.org/2000/svg">
<path d="M19.0626 18.8379L16.3443 16.1204C16.2646 16.0409 16.2013 15.9463 16.1582 15.8423C16.115 15.7382 16.0928 15.6266 16.0928 15.514C16.0928 15.4013 16.115 15.2898 16.1582 15.1857C16.2013 15.0816 16.2646 14.9871 16.3443 14.9075C16.6884 14.572 17.2304 14.572 17.5658 14.9075L19.6734 17.0151L24.4906 12.1979C24.8261 11.8624 25.3766 11.8624 25.7121 12.1979C26.0476 12.5333 26.0476 13.0753 25.7121 13.4194L20.2841 18.8387C19.9486 19.1742 19.4067 19.1742 19.0626 18.8379Z" fill="#1E2837"/>
<path d="M21.553 24.6899C17.2958 24.6899 13.3672 21.723 12.3151 17.5277C11.2355 13.2267 13.3328 8.68042 17.3018 6.71913C21.2571 4.76472 26.1353 5.84257 28.9001 9.28257C31.6459 12.6993 31.6571 17.6731 28.9276 21.1097C28.7852 21.287 28.5785 21.4007 28.3525 21.426C28.1266 21.4513 27.8998 21.3861 27.7218 21.2447C27.5437 21.1032 27.4289 20.8971 27.4025 20.6713C27.376 20.4454 27.44 20.2183 27.5805 20.0396C29.8153 17.2267 29.8059 13.1561 27.5599 10.3604C25.2958 7.54494 21.3035 6.66236 18.0639 8.26149C14.8158 9.86666 13.0996 13.5871 13.9839 17.1088C14.9233 20.8533 18.6669 23.4013 22.4958 22.9092C23.4537 22.7867 24.3801 22.4856 25.2269 22.0215C25.3262 21.9643 25.4359 21.9276 25.5495 21.9134C25.6632 21.8992 25.7785 21.9078 25.8888 21.9388C25.9991 21.9697 26.102 22.0224 26.1917 22.0937C26.2813 22.165 26.3558 22.2535 26.4108 22.3539C26.4658 22.4544 26.5002 22.5649 26.5119 22.6788C26.5237 22.7927 26.5125 22.9079 26.4792 23.0174C26.4458 23.127 26.3909 23.2288 26.3177 23.3169C26.2445 23.405 26.1544 23.4775 26.0528 23.5303C24.6729 24.2858 23.1261 24.6844 21.553 24.6899Z" fill="#1E2837"/>
<path d="M35.7703 40C35.5639 40 35.3591 39.926 35.1983 39.7832L24.6778 30.4301H4.04989C2.97614 30.429 1.9467 30.0019 1.18744 29.2427C0.428188 28.4834 0.00113853 27.454 0 26.3802V4.04989C0.00113853 2.97614 0.428188 1.9467 1.18744 1.18744C1.9467 0.428188 2.97614 0.00113853 4.04989 0H38.9609C40.0346 0.00113853 41.0641 0.428188 41.8233 1.18744C42.5826 1.9467 43.0096 2.97614 43.0108 4.04989V26.3794C43.0096 27.4531 42.5826 28.4825 41.8233 29.2418C41.0641 30.0011 40.0346 30.4281 38.9609 30.4292H36.6314V39.1398C36.6314 39.2528 36.6091 39.3648 36.5658 39.4692C36.5226 39.5736 36.4591 39.6685 36.3791 39.7484C36.2992 39.8282 36.2042 39.8916 36.0998 39.9348C35.9953 39.9779 35.8834 40.0001 35.7703 40ZM4.04989 1.72043C3.43229 1.72111 2.84018 1.96676 2.40347 2.40347C1.96676 2.84018 1.72111 3.43229 1.72043 4.04989V26.3794C1.72111 26.997 1.96676 27.5891 2.40347 28.0258C2.84018 28.4625 3.43229 28.7081 4.04989 28.7088H25.0047C25.2155 28.7088 25.4185 28.7862 25.5768 28.9256L34.911 37.2232V29.569C34.911 29.3409 35.0016 29.1221 35.1629 28.9608C35.3242 28.7994 35.543 28.7088 35.7712 28.7088H38.9609C39.5785 28.7081 40.1706 28.4625 40.6073 28.0258C41.044 27.5891 41.2896 26.997 41.2903 26.3794V4.04989C41.2896 3.43229 41.044 2.84018 40.6073 2.40347C40.1706 1.96676 39.5785 1.72111 38.9609 1.72043H4.04989Z" fill="#1E2837"/>
</svg>
